<?xml version="1.0" encoding="UTF-8"?>
<svg id="_レイヤー_1" data-name="レイヤー_1" xmlns="http://www.w3.org/2000/svg" viewBox="0 0 279.38 268.67">
  <defs>
    <style>
      .cls-1 {
        fill: #ffff;
      }

      .cls-2 {
        fill: #ffff;
      }
    </style>
  </defs>
  <path class="cls-1" d="M219.59,108.16v108.33c0,11.72-9.53,21.25-21.25,21.25H59.84c-11.72,0-21.26-9.53-21.26-21.25V77.99c0-11.72,9.54-21.26,21.26-21.26h126.32l27.62-27.62c-4.87-1.55-10.06-2.38-15.44-2.38H59.84c-28.26,0-51.26,23-51.26,51.26v138.5c0,28.26,23,51.25,51.26,51.25h138.5c28.26,0,51.25-22.99,51.25-51.25V78.15l-30,30.01Z"/>
  <g>
    <polygon class="cls-1" points="279.15 34.45 248.06 65.54 219.59 94.01 168.26 145.35 168.25 145.35 139.97 117.06 200.21 56.82 223.62 33.41 250.87 6.16 279.15 34.45"/>
    <polygon class="cls-2" points="158.73 154.82 130.42 126.5 122.1 163.22 158.73 154.82"/>
  </g>
</svg>